<svg id="Layer_1" data-name="Layer 1" xmlns="http://www.w3.org/2000/svg" xmlns:xlink="http://www.w3.org/1999/xlink" viewBox="0 0 167.55 96.62"><defs><style>.cls-1,.cls-20,.cls-21,.cls-6,.cls-8{fill:none;}.cls-1,.cls-20{stroke:#1393ea;}.cls-1,.cls-10,.cls-11,.cls-16,.cls-20,.cls-21,.cls-6,.cls-8{stroke-miterlimit:10;}.cls-1,.cls-11{stroke-width:2px;}.cls-2{fill:#144682;}.cls-3{fill:#4c5b7f;}.cls-4{fill:url(#linear-gradient);}.cls-5{fill:url(#linear-gradient-2);}.cls-6{stroke:#1e9cd7;}.cls-7{fill:#fafbfc;}.cls-10,.cls-8{stroke:#148cef;}.cls-11,.cls-9{fill:#fff;}.cls-10,.cls-12{fill:#148cef;}.cls-11,.cls-21{stroke:#fff;}.cls-13{fill:url(#linear-gradient-3);}.cls-14{fill:url(#linear-gradient-4);}.cls-15{fill:url(#linear-gradient-5);}.cls-16{fill:url(#linear-gradient-6);stroke:url(#linear-gradient-7);}.cls-17{fill:#dce0ad;}.cls-18{fill:#fffffd;}.cls-19{fill:#a8c441;}</style><linearGradient id="linear-gradient" x1="-105.85" y1="54.34" x2="-105.68" y2="54.34" gradientUnits="userSpaceOnUse"><stop offset="0" stop-color="#cce0f4"/><stop offset="0.06" stop-color="#c4d7ed"/><stop offset="0.15" stop-color="#aebddb"/><stop offset="0.27" stop-color="#8a94be"/><stop offset="0.41" stop-color="#585a95"/><stop offset="0.57" stop-color="#1b1464"/><stop offset="0.87" stop-color="#0075be"/><stop offset="0.99" stop-color="#005b97"/></linearGradient><linearGradient id="linear-gradient-2" x1="52.59" y1="54.49" x2="53.16" y2="54.49" gradientUnits="userSpaceOnUse"><stop offset="0" stop-color="#cce0f4"/><stop offset="0.05" stop-color="#c3dcf2"/><stop offset="0.14" stop-color="#a9d2ee"/><stop offset="0.26" stop-color="#80c2e7"/><stop offset="0.39" stop-color="#47acde"/><stop offset="0.47" stop-color="#1e9cd7"/><stop offset="0.77" stop-color="#0075be"/><stop offset="0.92" stop-color="#005b97"/></linearGradient><linearGradient id="linear-gradient-3" x1="33.06" y1="72.62" x2="34.6" y2="72.62" xlink:href="#linear-gradient-2"/><linearGradient id="linear-gradient-4" x1="33.71" y1="73.14" x2="35.75" y2="73.14" xlink:href="#linear-gradient-2"/><linearGradient id="linear-gradient-5" x1="-105.85" y1="78.38" x2="-105.68" y2="78.38" xlink:href="#linear-gradient"/><linearGradient id="linear-gradient-6" x1="31.2" y1="76.71" x2="55.44" y2="76.71" xlink:href="#linear-gradient-2"/><linearGradient id="linear-gradient-7" x1="30.18" y1="76.58" x2="55.94" y2="76.58" xlink:href="#linear-gradient-2"/></defs><polyline class="cls-1" points="40.86 64.87 56.7 64.87 56.7 58.09 56.7 57.64 56.7 53.86 56.7 53.08 56.7 52.37 56.7 51.92 56.7 39.79 56.7 38.45"/><path class="cls-2" d="M73.71,66H72.17v6.26a1.35,1.35,0,0,1-.19.8.62.62,0,0,1-1,0,1.3,1.3,0,0,1-.2-.8V66H69.23a.66.66,0,0,1-.53-.2.73.73,0,0,1-.18-.52.66.66,0,0,1,.71-.72h4.48a.7.7,0,0,1,.54.2.75.75,0,0,1,.18.52.73.73,0,0,1-.18.52A.7.7,0,0,1,73.71,66Z" transform="translate(-3.55 -3)"/><path class="cls-2" d="M78.31,70.44H75.78a2.43,2.43,0,0,0,.18,1,1.52,1.52,0,0,0,.46.63,1,1,0,0,0,.63.21,1.37,1.37,0,0,0,.42-.07,1.58,1.58,0,0,0,.38-.21,3.26,3.26,0,0,0,.33-.31l.39-.45a.38.38,0,0,1,.29-.1.41.41,0,0,1,.32.13.56.56,0,0,1,.12.38,1.09,1.09,0,0,1-.14.51,1.91,1.91,0,0,1-.41.56,2.14,2.14,0,0,1-.7.44,2.42,2.42,0,0,1-1,.18,2.32,2.32,0,0,1-1.94-.88A3.79,3.79,0,0,1,74.46,70a4.59,4.59,0,0,1,.17-1.32,3,3,0,0,1,.5-1,2.07,2.07,0,0,1,.8-.67A2.32,2.32,0,0,1,77,66.78a2.15,2.15,0,0,1,1.3.39,2.43,2.43,0,0,1,.82,1,3.2,3.2,0,0,1,.27,1.28.89.89,0,0,1-.28.78A1.47,1.47,0,0,1,78.31,70.44Zm-2.53-.91h2.35a2.27,2.27,0,0,0-.36-1.23,1,1,0,0,0-.82-.41.94.94,0,0,0-.79.42A2.26,2.26,0,0,0,75.78,69.53Z" transform="translate(-3.55 -3)"/><path class="cls-2" d="M85.25,71.32a1.57,1.57,0,0,1-.15.64,2.08,2.08,0,0,1-.44.65,2.24,2.24,0,0,1-.75.5,2.53,2.53,0,0,1-1,.19A2.22,2.22,0,0,1,81,72.43a3.68,3.68,0,0,1-.68-2.32,4.75,4.75,0,0,1,.31-1.75,2.65,2.65,0,0,1,.89-1.17,2.41,2.41,0,0,1,1.4-.41,2.32,2.32,0,0,1,.92.18,2.25,2.25,0,0,1,.71.47A2.52,2.52,0,0,1,85,68a1.47,1.47,0,0,1,.15.61.75.75,0,0,1-.17.49.56.56,0,0,1-.42.2.41.41,0,0,1-.27-.1,1.59,1.59,0,0,1-.24-.34,2.34,2.34,0,0,0-.5-.67,1,1,0,0,0-.65-.22,1.07,1.07,0,0,0-.93.56,2.84,2.84,0,0,0-.35,1.51,3.67,3.67,0,0,0,.09.84,2.2,2.2,0,0,0,.26.64,1.17,1.17,0,0,0,.42.41,1,1,0,0,0,.53.14,1,1,0,0,0,.66-.23,1.76,1.76,0,0,0,.49-.68,1.6,1.6,0,0,1,.26-.42.43.43,0,0,1,.34-.15.47.47,0,0,1,.39.22A.86.86,0,0,1,85.25,71.32Z" transform="translate(-3.55 -3)"/><path class="cls-2" d="M87.53,65.38v2.38A3.15,3.15,0,0,1,88,67.2a1.44,1.44,0,0,1,.52-.31,1.7,1.7,0,0,1,.61-.1,1.54,1.54,0,0,1,.87.26,1.62,1.62,0,0,1,.6.75,2.51,2.51,0,0,1,.19.64,6.71,6.71,0,0,1,0,.82v3.07a1.21,1.21,0,0,1-.18.73.53.53,0,0,1-.47.25c-.42,0-.64-.33-.64-1v-2.7a3.1,3.1,0,0,0-.18-1.19.71.71,0,0,0-.7-.41,1,1,0,0,0-.63.24,1.55,1.55,0,0,0-.41.67,5.11,5.11,0,0,0-.11,1.27v2.12a1.25,1.25,0,0,1-.17.73.54.54,0,0,1-.48.25c-.43,0-.64-.33-.64-1v-7a1.29,1.29,0,0,1,.17-.73.55.55,0,0,1,.47-.25.57.57,0,0,1,.48.25A1.25,1.25,0,0,1,87.53,65.38Z" transform="translate(-3.55 -3)"/><path class="cls-2" d="M93.45,67.68v.19a2.49,2.49,0,0,1,.74-.82,1.71,1.71,0,0,1,.93-.26,1.56,1.56,0,0,1,.92.28,1.59,1.59,0,0,1,.6.78,2.09,2.09,0,0,1,.17.63q0,.34,0,.87v3a1.21,1.21,0,0,1-.17.73.55.55,0,0,1-.47.25.53.53,0,0,1-.46-.25,1.25,1.25,0,0,1-.19-.73V69.66a3.2,3.2,0,0,0-.17-1.21.7.7,0,0,0-.71-.42.92.92,0,0,0-.63.25,1.51,1.51,0,0,0-.42.71,6.48,6.48,0,0,0-.09,1.34v2a1.26,1.26,0,0,1-.19.74.57.57,0,0,1-.47.24.53.53,0,0,1-.46-.25,1.25,1.25,0,0,1-.18-.73V67.7a1.22,1.22,0,0,1,.16-.68.5.5,0,0,1,.44-.23.48.48,0,0,1,.31.1.69.69,0,0,1,.22.3A1.16,1.16,0,0,1,93.45,67.68Z" transform="translate(-3.55 -3)"/><path class="cls-2" d="M103.12,70.05a4.58,4.58,0,0,1-.18,1.32,3.09,3.09,0,0,1-.53,1,2.37,2.37,0,0,1-.81.67,2.58,2.58,0,0,1-2.13,0,2.5,2.5,0,0,1-.81-.68,3,3,0,0,1-.52-1,5,5,0,0,1,0-2.65,3,3,0,0,1,.52-1,2.46,2.46,0,0,1,.81-.66,2.58,2.58,0,0,1,2.13,0,2.4,2.4,0,0,1,.82.67,3.08,3.08,0,0,1,.52,1A4.58,4.58,0,0,1,103.12,70.05Zm-1.3,0a2.89,2.89,0,0,0-.35-1.53,1.07,1.07,0,0,0-.94-.54,1,1,0,0,0-.67.24,1.5,1.5,0,0,0-.44.72,3.42,3.42,0,0,0-.16,1.11,3.35,3.35,0,0,0,.16,1.1,1.61,1.61,0,0,0,.44.72,1,1,0,0,0,.67.25,1.08,1.08,0,0,0,.94-.55A2.85,2.85,0,0,0,101.82,70.05Z" transform="translate(-3.55 -3)"/><path class="cls-2" d="M104.27,72.33v-7a1.33,1.33,0,0,1,.17-.73.57.57,0,0,1,.94,0,1.2,1.2,0,0,1,.19.73v7a1.26,1.26,0,0,1-.19.74.57.57,0,0,1-.47.24.53.53,0,0,1-.46-.25A1.25,1.25,0,0,1,104.27,72.33Z" transform="translate(-3.55 -3)"/><path class="cls-2" d="M111.88,70.05a4.58,4.58,0,0,1-.18,1.32,3.08,3.08,0,0,1-.52,1,2.37,2.37,0,0,1-.81.67,2.58,2.58,0,0,1-2.13,0,2.5,2.5,0,0,1-.81-.68,3,3,0,0,1-.52-1,5,5,0,0,1,0-2.65,3,3,0,0,1,.52-1,2.36,2.36,0,0,1,.81-.66,2.46,2.46,0,0,1,1.06-.23,2.5,2.5,0,0,1,1.07.23,2.4,2.4,0,0,1,.82.67,3.08,3.08,0,0,1,.52,1A4.59,4.59,0,0,1,111.88,70.05Zm-1.3,0a2.89,2.89,0,0,0-.34-1.53,1.08,1.08,0,0,0-.94-.54,1,1,0,0,0-.67.24,1.5,1.5,0,0,0-.44.72,3.42,3.42,0,0,0-.16,1.11,3.66,3.66,0,0,0,.15,1.1,1.62,1.62,0,0,0,.45.72,1,1,0,0,0,.67.25,1.09,1.09,0,0,0,.94-.55A2.85,2.85,0,0,0,110.58,70.05Z" transform="translate(-3.55 -3)"/><path class="cls-2" d="M117.8,68v4.66a6.11,6.11,0,0,1-.14,1.38,2.39,2.39,0,0,1-.44,1,1.81,1.81,0,0,1-.79.56,3.61,3.61,0,0,1-1.22.18,3,3,0,0,1-1.2-.23,2.15,2.15,0,0,1-.81-.6,1.23,1.23,0,0,1-.28-.76.71.71,0,0,1,.16-.48.48.48,0,0,1,.39-.18.58.58,0,0,1,.49.31l.22.32a1.12,1.12,0,0,0,.25.28,1,1,0,0,0,.32.17,1.9,1.9,0,0,0,.44,0,1.46,1.46,0,0,0,.78-.17,1,1,0,0,0,.39-.48,2.84,2.84,0,0,0,.13-.67c0-.24,0-.62,0-1.14a2.42,2.42,0,0,1-.69.78,1.59,1.59,0,0,1-.93.27,1.66,1.66,0,0,1-1.13-.41A2.51,2.51,0,0,1,113,71.6a5.21,5.21,0,0,1-.26-1.71,4.72,4.72,0,0,1,.16-1.3,2.87,2.87,0,0,1,.45-1A2.06,2.06,0,0,1,114,67a1.83,1.83,0,0,1,.84-.2,1.77,1.77,0,0,1,1,.26,2.73,2.73,0,0,1,.74.82v-.22a1.08,1.08,0,0,1,.17-.64.51.51,0,0,1,.43-.23.49.49,0,0,1,.5.3A2.45,2.45,0,0,1,117.8,68Zm-3.75,2a2.58,2.58,0,0,0,.34,1.47,1.05,1.05,0,0,0,.89.5,1,1,0,0,0,.61-.21,1.56,1.56,0,0,0,.47-.65,2.74,2.74,0,0,0,.18-1,2.89,2.89,0,0,0-.35-1.53,1.05,1.05,0,0,0-.92-.54,1,1,0,0,0-.89.52A2.79,2.79,0,0,0,114.05,70Z" transform="translate(-3.55 -3)"/><path class="cls-2" d="M120.44,73.51l.12-.36-1.6-5a2.38,2.38,0,0,1-.14-.62.92.92,0,0,1,.08-.38.73.73,0,0,1,.24-.28.5.5,0,0,1,.73.11,2.42,2.42,0,0,1,.25.63l1.1,4,1-3.67c.09-.3.16-.53.23-.7a.71.71,0,0,1,.21-.34.48.48,0,0,1,.31-.09.46.46,0,0,1,.29.1.52.52,0,0,1,.2.26.81.81,0,0,1,.08.34,3.14,3.14,0,0,0-.06.32c0,.14-.07.28-.11.42l-1.69,5.47a6.69,6.69,0,0,1-.42,1.14,1.49,1.49,0,0,1-1.48.85,1.92,1.92,0,0,1-.86-.15.58.58,0,0,1-.28-.56.61.61,0,0,1,.13-.43.54.54,0,0,1,.41-.15.48.48,0,0,1,.2,0l.21,0a.59.59,0,0,0,.35-.08.6.6,0,0,0,.23-.28A5.26,5.26,0,0,0,120.44,73.51Z" transform="translate(-3.55 -3)"/><path class="cls-2" d="M132.58,70.58a2.92,2.92,0,0,1-.33,1.4,2.3,2.3,0,0,1-.95,1,3,3,0,0,1-1.48.35,2.85,2.85,0,0,1-1.7-.48,2.53,2.53,0,0,1-.77-.93,2.41,2.41,0,0,1-.3-1.12.89.89,0,0,1,.18-.55.55.55,0,0,1,.45-.22.5.5,0,0,1,.38.17,1.54,1.54,0,0,1,.26.53,4.63,4.63,0,0,0,.29.69,1.32,1.32,0,0,0,.43.45,1.37,1.37,0,0,0,.74.18,1.44,1.44,0,0,0,1-.36,1.17,1.17,0,0,0,.39-.9,1.1,1.1,0,0,0-.21-.7,1.35,1.35,0,0,0-.55-.41c-.22-.09-.52-.19-.89-.3a5.32,5.32,0,0,1-1.26-.51,2.16,2.16,0,0,1-.8-.79,2.78,2.78,0,0,1,0-2.51,2.08,2.08,0,0,1,.91-.85,3,3,0,0,1,1.39-.3,2.89,2.89,0,0,1,1.11.2,2.27,2.27,0,0,1,.77.52,2,2,0,0,1,.45.69,1.78,1.78,0,0,1,.14.7,1,1,0,0,1-.17.56.55.55,0,0,1-.45.25.43.43,0,0,1-.36-.15,2.05,2.05,0,0,1-.28-.49,2.18,2.18,0,0,0-.45-.76,1.13,1.13,0,0,0-.86-.28,1.24,1.24,0,0,0-.87.3.91.91,0,0,0-.34.71.88.88,0,0,0,.11.45,1,1,0,0,0,.32.32,2.24,2.24,0,0,0,.4.22l.67.22a9.47,9.47,0,0,1,1.07.37,3.19,3.19,0,0,1,.81.5,2,2,0,0,1,.52.75A2.93,2.93,0,0,1,132.58,70.58Z" transform="translate(-3.55 -3)"/><path class="cls-2" d="M138.66,70.05a4.58,4.58,0,0,1-.18,1.32,3.08,3.08,0,0,1-.52,1,2.46,2.46,0,0,1-.81.67,2.5,2.5,0,0,1-1.07.23,2.43,2.43,0,0,1-1.06-.23,2.5,2.5,0,0,1-.81-.68,3,3,0,0,1-.52-1,5,5,0,0,1,0-2.65,3,3,0,0,1,.52-1A2.36,2.36,0,0,1,135,67a2.46,2.46,0,0,1,1.06-.23,2.5,2.5,0,0,1,1.07.23,2.4,2.4,0,0,1,.82.67,3.27,3.27,0,0,1,.52,1A5,5,0,0,1,138.66,70.05Zm-1.3,0a2.89,2.89,0,0,0-.34-1.53,1.08,1.08,0,0,0-.94-.54,1,1,0,0,0-.67.24,1.59,1.59,0,0,0-.45.72,3.73,3.73,0,0,0-.15,1.11,3.66,3.66,0,0,0,.15,1.1,1.7,1.7,0,0,0,.44.72,1,1,0,0,0,.68.25,1.09,1.09,0,0,0,.94-.55A2.85,2.85,0,0,0,137.36,70.05Z" transform="translate(-3.55 -3)"/><path class="cls-2" d="M139.82,72.33v-7a1.33,1.33,0,0,1,.17-.73.57.57,0,0,1,.94,0,1.21,1.21,0,0,1,.18.73v7a1.26,1.26,0,0,1-.18.74.57.57,0,0,1-.47.24.53.53,0,0,1-.46-.25A1.25,1.25,0,0,1,139.82,72.33Z" transform="translate(-3.55 -3)"/><path class="cls-2" d="M146,72.41V72.2a3.53,3.53,0,0,1-.49.61,1.65,1.65,0,0,1-.56.37,1.85,1.85,0,0,1-.69.12,1.5,1.5,0,0,1-.84-.24,1.59,1.59,0,0,1-.58-.67,3.56,3.56,0,0,1-.24-1.47V67.75a1.27,1.27,0,0,1,.17-.72.58.58,0,0,1,.94,0,1.19,1.19,0,0,1,.18.72v2.56a4.84,4.84,0,0,0,.08.94,1.2,1.2,0,0,0,.27.59.67.67,0,0,0,.53.22,1,1,0,0,0,.62-.24,1.4,1.4,0,0,0,.42-.63,5.86,5.86,0,0,0,.11-1.49v-2a1.19,1.19,0,0,1,.18-.72.58.58,0,0,1,.94,0,1.27,1.27,0,0,1,.17.72v4.64a1.1,1.1,0,0,1-.17.69.51.51,0,0,1-.43.23.53.53,0,0,1-.44-.24A1.15,1.15,0,0,1,146,72.41Z" transform="translate(-3.55 -3)"/><path class="cls-2" d="M148.66,66.93h.14V66c0-.26,0-.46,0-.61a1.06,1.06,0,0,1,.09-.38.64.64,0,0,1,.22-.27.51.51,0,0,1,.32-.1.59.59,0,0,1,.44.23.7.7,0,0,1,.17.37,5.06,5.06,0,0,1,0,.63v1.09h.48a.54.54,0,0,1,.42.16.64.64,0,0,1,.14.42.51.51,0,0,1-.2.45,1.2,1.2,0,0,1-.59.13h-.25v3a4.3,4.3,0,0,0,0,.58.61.61,0,0,0,.11.32.33.33,0,0,0,.3.13,1.5,1.5,0,0,0,.31,0,1.53,1.53,0,0,1,.3,0,.33.33,0,0,1,.28.16.55.55,0,0,1,.13.38.63.63,0,0,1-.34.59,1.9,1.9,0,0,1-1,.21,1.42,1.42,0,0,1-.92-.25,1.16,1.16,0,0,1-.41-.7,5.49,5.49,0,0,1-.1-1.19V68.09h-.17a.55.55,0,0,1-.43-.17.64.64,0,0,1-.14-.41.6.6,0,0,1,.15-.42A.58.58,0,0,1,148.66,66.93Z" transform="translate(-3.55 -3)"/><path class="cls-2" d="M152.82,66a.63.63,0,0,1-.47-.2.81.81,0,0,1-.19-.58.8.8,0,0,1,.2-.56.58.58,0,0,1,.46-.22.61.61,0,0,1,.44.19,1,1,0,0,1,0,1.16A.6.6,0,0,1,152.82,66Zm.64,1.66v4.63a1.2,1.2,0,0,1-.19.73.55.55,0,0,1-.47.25.53.53,0,0,1-.46-.25,1.25,1.25,0,0,1-.18-.73V67.75a1.19,1.19,0,0,1,.18-.72.55.55,0,0,1,.46-.24.57.57,0,0,1,.47.24A1.09,1.09,0,0,1,153.46,67.7Z" transform="translate(-3.55 -3)"/><path class="cls-2" d="M159.77,70.05a4.58,4.58,0,0,1-.18,1.32,3.08,3.08,0,0,1-.52,1,2.46,2.46,0,0,1-.81.67,2.5,2.5,0,0,1-1.07.23,2.46,2.46,0,0,1-1.06-.23,2.5,2.5,0,0,1-.81-.68,3,3,0,0,1-.52-1,5,5,0,0,1,0-2.65,3,3,0,0,1,.52-1,2.36,2.36,0,0,1,.81-.66,2.46,2.46,0,0,1,1.06-.23,2.5,2.5,0,0,1,1.07.23,2.4,2.4,0,0,1,.82.67,3.27,3.27,0,0,1,.52,1A5,5,0,0,1,159.77,70.05Zm-1.3,0a2.89,2.89,0,0,0-.34-1.53,1.08,1.08,0,0,0-.94-.54,1,1,0,0,0-.67.24,1.5,1.5,0,0,0-.44.72,3.42,3.42,0,0,0-.16,1.11,3.66,3.66,0,0,0,.15,1.1,1.7,1.7,0,0,0,.44.72,1.06,1.06,0,0,0,.68.25,1.09,1.09,0,0,0,.94-.55A2.85,2.85,0,0,0,158.47,70.05Z" transform="translate(-3.55 -3)"/><path class="cls-2" d="M162.1,67.68v.19a2.62,2.62,0,0,1,.75-.82,1.71,1.71,0,0,1,.93-.26,1.56,1.56,0,0,1,.92.28,1.59,1.59,0,0,1,.6.78,2.43,2.43,0,0,1,.17.63q0,.34,0,.87v3a1.29,1.29,0,0,1-.17.73.57.57,0,0,1-.94,0,1.25,1.25,0,0,1-.18-.73V69.66a3.42,3.42,0,0,0-.17-1.21.7.7,0,0,0-.71-.42.92.92,0,0,0-.63.25,1.51,1.51,0,0,0-.42.71,6.27,6.27,0,0,0-.1,1.34v2a1.26,1.26,0,0,1-.18.74.57.57,0,0,1-.47.24.53.53,0,0,1-.46-.25,1.25,1.25,0,0,1-.18-.73V67.7a1.14,1.14,0,0,1,.16-.68.5.5,0,0,1,.44-.23.48.48,0,0,1,.31.1.69.69,0,0,1,.22.3A1.17,1.17,0,0,1,162.1,67.68Z" transform="translate(-3.55 -3)"/><path class="cls-2" d="M171.1,71.21a2.37,2.37,0,0,1-.26,1.14,1.79,1.79,0,0,1-.77.72,2.92,2.92,0,0,1-1.24.24,2.59,2.59,0,0,1-1.2-.26,1.77,1.77,0,0,1-.73-.67,1.51,1.51,0,0,1-.24-.79.68.68,0,0,1,.15-.45.46.46,0,0,1,.38-.19.42.42,0,0,1,.32.12,1.53,1.53,0,0,1,.21.35,1.72,1.72,0,0,0,.47.64,1.25,1.25,0,0,0,.76.21,1,1,0,0,0,.64-.21.67.67,0,0,0,.25-.49.72.72,0,0,0-.26-.62,2.9,2.9,0,0,0-.85-.37,6.34,6.34,0,0,1-1.09-.43,1.77,1.77,0,0,1-.67-.6,1.57,1.57,0,0,1-.25-.91,1.84,1.84,0,0,1,.23-.91,1.73,1.73,0,0,1,.68-.69,2.24,2.24,0,0,1,1.1-.25,2.84,2.84,0,0,1,.9.13,1.85,1.85,0,0,1,.67.35,1.55,1.55,0,0,1,.41.48,1.12,1.12,0,0,1,.14.51.69.69,0,0,1-.15.46.55.55,0,0,1-.43.17.45.45,0,0,1-.34-.14,2.49,2.49,0,0,1-.32-.42,1.4,1.4,0,0,0-.34-.38,1,1,0,0,0-.54-.14.89.89,0,0,0-.59.19.56.56,0,0,0-.23.46.55.55,0,0,0,.17.41,1.36,1.36,0,0,0,.46.27c.19.07.46.16.8.26a3.6,3.6,0,0,1,1,.43,1.74,1.74,0,0,1,.58.6A1.56,1.56,0,0,1,171.1,71.21Z" transform="translate(-3.55 -3)"/><path class="cls-2" d="M91.68,51.6a4.39,4.39,0,0,1-.6,2.08,7.5,7.5,0,0,1-1.86,2.2A9.91,9.91,0,0,1,86,57.63a14.27,14.27,0,0,1-4.61.67,20.07,20.07,0,0,1-3.62-.3,12,12,0,0,1-3-.94,10.07,10.07,0,0,1-2.45-1.68,10.21,10.21,0,0,1-1.7-2.12,9.4,9.4,0,0,1-1.05-2.51,10.73,10.73,0,0,1-.36-2.82,10.28,10.28,0,0,1,.89-4.35,9.23,9.23,0,0,1,2.53-3.29,11.62,11.62,0,0,1,3.87-2.08,15.51,15.51,0,0,1,4.73-.71,14.27,14.27,0,0,1,5.44,1,9.64,9.64,0,0,1,3.66,2.41,4.23,4.23,0,0,1,1.28,2.71A1.62,1.62,0,0,1,91,44.83a2.24,2.24,0,0,1-1.5.53A2.42,2.42,0,0,1,88,45a5.5,5.5,0,0,1-1.09-1.27,6.63,6.63,0,0,0-2.34-2.24,6.78,6.78,0,0,0-3.33-.74,6.65,6.65,0,0,0-5,1.91,7.42,7.42,0,0,0-1.86,5.41A8.3,8.3,0,0,0,75.21,52a5.3,5.3,0,0,0,2.34,2.32,7.63,7.63,0,0,0,3.54.77,7.37,7.37,0,0,0,3.72-.87,5.46,5.46,0,0,0,2.29-2.56,4.07,4.07,0,0,1,.81-1.29,2.05,2.05,0,0,1,1.55-.51,2.44,2.44,0,0,1,1.56.51A1.54,1.54,0,0,1,91.68,51.6Z" transform="translate(-3.55 -3)"/><path class="cls-2" d="M107.77,37.5a16.2,16.2,0,0,1,6.73,1.27,9.37,9.37,0,0,1,4.25,3.61,10.18,10.18,0,0,1,1.45,5.49,11.08,11.08,0,0,1-.79,4.24A9,9,0,0,1,117,55.42a10.75,10.75,0,0,1-3.89,2.14,17.29,17.29,0,0,1-5.27.74,17,17,0,0,1-5.3-.76,10.78,10.78,0,0,1-3.9-2.15,8.85,8.85,0,0,1-2.36-3.33,10.88,10.88,0,0,1-.8-4.21,10.58,10.58,0,0,1,.83-4.26,8.89,8.89,0,0,1,2.42-3.29,10.71,10.71,0,0,1,3.85-2.08A17,17,0,0,1,107.77,37.5ZM115,47.85a7.74,7.74,0,0,0-.89-3.83,5.81,5.81,0,0,0-2.55-2.45,9.06,9.06,0,0,0-6.64-.37,6,6,0,0,0-3.71,3.58,8.27,8.27,0,0,0-.54,3.07,8.51,8.51,0,0,0,.54,3.1,6,6,0,0,0,1.53,2.29A6.51,6.51,0,0,0,105,54.61a8.41,8.41,0,0,0,2.81.45,8.25,8.25,0,0,0,3.6-.78,6,6,0,0,0,2.61-2.41A7.72,7.72,0,0,0,115,47.85Z" transform="translate(-3.55 -3)"/><path class="cls-2" d="M131.84,49.35h-1.78v6.47a2.36,2.36,0,0,1-.71,1.88,2.73,2.73,0,0,1-1.84.6,2.66,2.66,0,0,1-1.89-.63,2.41,2.41,0,0,1-.67-1.85V40.34a2.32,2.32,0,0,1,.74-1.91,3.86,3.86,0,0,1,2.39-.59h8.3c1.15,0,2.12,0,2.94.12a8.9,8.9,0,0,1,2.2.47,6.87,6.87,0,0,1,2.1,1.14A5.25,5.25,0,0,1,145,41.29a4.83,4.83,0,0,1,.47,2.08,4.48,4.48,0,0,1-1.59,3.6,10.15,10.15,0,0,1-4.82,1.9,9.42,9.42,0,0,1,2.6,1.71,17.61,17.61,0,0,1,2.2,2.39,17,17,0,0,1,1.52,2.29,3.85,3.85,0,0,1,.54,1.41,1.28,1.28,0,0,1-.32.79,2.1,2.1,0,0,1-.87.61,3.13,3.13,0,0,1-1.27.23A3,3,0,0,1,142,58a3.67,3.67,0,0,1-1-.82c-.28-.33-.66-.81-1.14-1.45L137.82,53a15.55,15.55,0,0,0-2-2.28,4.91,4.91,0,0,0-1.77-1.07A7.45,7.45,0,0,0,131.84,49.35Zm2.92-8.45h-4.7v5.53h4.57a15.92,15.92,0,0,0,3.09-.25,3.9,3.9,0,0,0,1.92-.87,2.16,2.16,0,0,0,.66-1.68,2.25,2.25,0,0,0-.53-1.47,3.26,3.26,0,0,0-1.48-1A13.31,13.31,0,0,0,134.76,40.9Z" transform="translate(-3.55 -3)"/><path class="cls-2" d="M167.33,41h-11.5v4.94h10.59a3,3,0,0,1,1.74.42,1.32,1.32,0,0,1,.58,1.11,1.36,1.36,0,0,1-.57,1.12,2.94,2.94,0,0,1-1.75.43H155.83v5.72h11.89a3,3,0,0,1,1.81.45,1.43,1.43,0,0,1,0,2.34,3,3,0,0,1-1.81.45H153.85a3.88,3.88,0,0,1-2.4-.59,2.34,2.34,0,0,1-.73-1.91V40.34a2.75,2.75,0,0,1,.33-1.43,1.9,1.9,0,0,1,1-.81,5.27,5.27,0,0,1,1.78-.26h13.48a3.16,3.16,0,0,1,1.81.43,1.4,1.4,0,0,1,0,2.28A3.08,3.08,0,0,1,167.33,41Z" transform="translate(-3.55 -3)"/><path class="cls-3" d="M59.74,36.78" transform="translate(-3.55 -3)"/><path class="cls-4" d="M57.73,36.8c-.47.84-.94,1.69-1.42,2.53-.64,1.1-1.28,2.2-1.93,3.3h0l-.86,1.46-.27.46c-.57,1-1.15,1.92-1.73,2.87Q50.17,49.7,48.76,52l-.1.17,0,.06-.34.55L48,53.2c-.41.67-.83,1.34-1.26,2l-.17.27-.37.58c-.41.65-.83,1.3-1.25,2C44,59.48,43,60.94,42,62.4c-.11.15-.21.3-.31.46l-.59.85-1,1.48-.32.46-.06.08c-.46.66-.86,1.22-1.15,1.65h0c-.53.73-1.05,1.46-1.58,2.18-.32.46-.66.91-1,1.36l-.71,1h.46c.58-.77,1.16-1.55,1.73-2.33l1.29-1.77.16-.23c.28-.38,1.14-2,1.3-2.23l0,0,.07-.11c.47-.67,1-1.4,1.59-2.29l0,0c.08-.12.16-.23.24-.36a.61.61,0,0,1,.07-.1l4.27-6.35c.08-.11.15-.23.23-.35l.12-.18,0-.05.3-.45c.43-.65.82-1.24,1.19-1.82l.22-.34.08-.11C49.88,50.91,51.08,49,52.26,47l1.46-2.47.2-.34a.75.75,0,0,1,.07-.12h.27c.57-1,1.13-2,1.67-3l.11-.2.86-1.6.21-.41c.36-.7.71-1.41,1-2.12Zm-39.26,0a2.81,2.81,0,0,0-2.87,2.74V69.15a2.82,2.82,0,0,0,2.87,2.74H34.6l.71-1c.33-.45.67-.9,1-1.36L37.41,68h-.06c.08-.12.16-.23.25-.34h0c.08-.11.15-.22.23-.32h0c.29-.43.69-1,1.15-1.65l.07-.09.31-.45c.28-.39.66-1,1-1.48l.59-.85c.1-.16.2-.31.31-.46.41-.61.82-1.21,1.22-1.82.18-.26.36-.53.53-.8.4-.59.79-1.18,1.18-1.78s.84-1.3,1.25-2c.13-.19.25-.39.37-.58l.17-.27c.43-.66.85-1.33,1.26-2l.29-.45.34-.55,0-.06.1-.17q1.41-2.27,2.76-4.55c.58-1,1.16-1.91,1.73-2.87a3.37,3.37,0,0,1,.19-.32,1,1,0,0,1,.08-.14l.86-1.46h0l.65-1.1.2-.34,1.08-1.86c.48-.84.95-1.69,1.42-2.53Z" transform="translate(-3.55 -3)"/><path class="cls-5" d="M52.59,54.76a1.56,1.56,0,0,0,.57-.54C53,54.42,52.75,54.59,52.59,54.76Z" transform="translate(-3.55 -3)"/><path class="cls-6" d="M62.73,37a2,2,0,0,0-.42-.11l-.14,0h-.38l-.52.05-1,.1a13.12,13.12,0,0,1-1,2l-.22.34c-.22.34-.48.76-.8,1.35-.18.34-.3.6-.34.68-.77,1.61-2.62,4.36-4.11,7-1,1.86-.82,1.72-1.58,3h0a1,1,0,0,1-.08.14c-.34.57-.68,1.11-1,1.6,0,0,0,0,0,0a28.94,28.94,0,0,1-2,2.62h0c-.81,1.22-1.62,2.45-2.45,3.66S45,61.94,44.15,63.15l-1.6,2.28L41,67.56c-.48.67-1,1.34-1.46,2s-1.15,1.56-1.74,2.33H61.79a2.82,2.82,0,0,0,2.87-2.74V39.54A2.75,2.75,0,0,0,62.73,37ZM52.59,54.76l0,0c.15-.17.34-.33.54-.52a1.13,1.13,0,0,1-.24.3l-.16.13-.15.1Z" transform="translate(-3.55 -3)"/><path class="cls-7" d="M47.87,54.87c-.07.12-.15.23-.23.35C47.71,55.1,47.79,55,47.87,54.87Z" transform="translate(-3.55 -3)"/><path class="cls-8" d="M52.59,54.76a1.56,1.56,0,0,0,.57-.54C53,54.42,52.75,54.59,52.59,54.76Z" transform="translate(-3.55 -3)"/><rect class="cls-9" x="12.05" y="43.83" width="23.69" height="0.46"/><ellipse class="cls-9" cx="36.94" cy="44.05" rx="0.96" ry="0.91"/><path class="cls-9" d="M40.49,45.91a1.14,1.14,0,1,0,0,2.28,1.14,1.14,0,1,0,0-2.28Zm0,1.83a.69.69,0,1,1,.72-.69A.7.7,0,0,1,40.49,47.74Z" transform="translate(-3.55 -3)"/><ellipse class="cls-9" cx="20.91" cy="48.61" rx="0.96" ry="0.91"/><path class="cls-9" d="M24.45,50.47a1.19,1.19,0,0,0-1.16.88,1.09,1.09,0,0,0,0,.26,1.11,1.11,0,0,0,0,.19,1.19,1.19,0,1,0,1.17-1.33Zm0,1.82a.68.68,0,1,1,.72-.68A.69.69,0,0,1,24.45,52.29Z" transform="translate(-3.55 -3)"/><ellipse class="cls-9" cx="29.52" cy="52.71" rx="0.96" ry="0.91"/><path class="cls-9" d="M33.07,54.57a1.18,1.18,0,0,0-1.17.91.9.9,0,0,0,0,.46,1.19,1.19,0,1,0,1.17-1.37Zm0,1.82a.73.73,0,0,1-.68-.45.59.59,0,0,1,0-.23.62.62,0,0,1,0-.23.73.73,0,0,1,.68-.45.68.68,0,1,1,0,1.36Z" transform="translate(-3.55 -3)"/><ellipse class="cls-9" cx="23.06" cy="56.81" rx="0.96" ry="0.91"/><path class="cls-9" d="M27.75,59.47a1.21,1.21,0,0,0-1.14-.8,1.14,1.14,0,1,0,1.19,1.26v-.12A1.27,1.27,0,0,0,27.75,59.47Zm-1.14,1a.69.69,0,1,1,0-1.37.75.75,0,0,1,.62.34.67.67,0,0,1,.1.34s0,.08,0,.12A.71.71,0,0,1,26.61,60.5Z" transform="translate(-3.55 -3)"/><ellipse class="cls-9" cx="37.9" cy="52.71" rx="0.96" ry="0.91"/><path class="cls-9" d="M42.61,55.47a1.19,1.19,0,1,0-1.16,1.38,1.21,1.21,0,0,0,1.14-.8,1.27,1.27,0,0,0,0-.34A1,1,0,0,0,42.61,55.47Zm-.45.24a.67.67,0,0,1-.09.34.71.71,0,0,1-.62.34.68.68,0,1,1,0-1.36.72.72,0,0,1,.67.44A.67.67,0,0,1,42.16,55.71Z" transform="translate(-3.55 -3)"/><ellipse class="cls-10" cx="53.59" cy="61.39" rx="0.96" ry="0.91" transform="translate(-31.42 60.35) rotate(-50.26)"/><ellipse class="cls-10" cx="57.67" cy="65.47" rx="0.96" ry="0.91" transform="translate(-33.09 64.95) rotate(-50.26)"/><ellipse class="cls-10" cx="54.95" cy="58.67" rx="0.96" ry="0.91" transform="translate(-25.05 80.51) rotate(-64.88)"/><ellipse class="cls-9" cx="43.16" cy="47.02" rx="0.96" ry="0.91"/><path class="cls-9" d="M46.71,48.88a1.18,1.18,0,0,0-1.17.91.83.83,0,0,0,0,.22.85.85,0,0,0,0,.23A1.2,1.2,0,0,0,47.91,50,1.17,1.17,0,0,0,46.71,48.88Zm0,1.82a.7.7,0,0,1-.67-.46A.56.56,0,0,1,46,50a.54.54,0,0,1,0-.22.71.71,0,1,1,.67.91Z" transform="translate(-3.55 -3)"/><path class="cls-11" d="M60.55,55.83" transform="translate(-3.55 -3)"/><polygon class="cls-12" points="54.38 55.9 51.78 55.9 51.78 55.45 54.19 55.45 55.83 52.69 56.15 52.96 54.38 55.9"/><path class="cls-13" d="M34.6,71.89l-1.09,1.46-.45-1.46Z" transform="translate(-3.55 -3)"/><path class="cls-14" d="M35.75,71.89l0,.06-.06.08h0l-.06.08-1.49,2-.18.22-.07.1L33.71,74l1.57-2.1Z" transform="translate(-3.55 -3)"/><path class="cls-15" d="M32.23,75.93a1.47,1.47,0,0,1-.1.13Q30.62,78,29,80l-.6.76a.52.52,0,0,1-.1.11h.33c.71-.85,1.41-1.71,2.1-2.57l1.91-2.4Zm-.88.1-14,1.66c-.07,1.07-.16,2.13-.23,3.19l10.34,0h.16l.1-.12.61-.76c1-1.27,2-2.55,3-3.83l.1-.13Z" transform="translate(-3.55 -3)"/><path class="cls-16" d="M34.64,76.5l.21-.24A1.21,1.21,0,0,0,34.64,76.5ZM41.56,76V72.45l-.13.06-1,.44-.12.06-.1,0-1.32.59L36.06,74.9s-.6.66-1.21,1.36a1.46,1.46,0,0,1,.24-.17,1.94,1.94,0,0,1,.81-.21V75.6c1.17-.65,2.34-1.3,3.5-2L40,73.4l.1-.05.12,0,1-.45.17-.08v3.45l13.87,1.56v2.91l-19.51,0h-4.1c.72-.94,1.47-1.94,2.29-3.06.38-.51.53-.9.73-1.2-.37.43-.71.83-.89,1.08s-.48.64-.7,1c-.6.81-1.17,1.55-1.72,2.27L31.2,81h4.52l19.72-.06v-3.3Z" transform="translate(-3.55 -3)"/><path class="cls-17" d="M35.75,71.89l0,.06a.21.21,0,0,0,0-.06Z" transform="translate(-3.55 -3)"/><path class="cls-3" d="M52.59,54.76a1.56,1.56,0,0,0,.57-.54C53,54.42,52.75,54.59,52.59,54.76Z" transform="translate(-3.55 -3)"/><path class="cls-18" d="M45,44.23h7.85l-.27.32H44.83l-4.28-2.24-.15-.08.27-.24,0,0,0,0,.61.32Z" transform="translate(-3.55 -3)"/><path class="cls-18" d="M54,44.09a.75.75,0,0,0-.07.12l-.2.34h-.47l.27-.46Z" transform="translate(-3.55 -3)"/><path class="cls-18" d="M47.59,52.75c-.09.15-.18.3-.28.45H31.66L28,47.28l-.07-.11.42-.23.21.34,3.4,5.47Z" transform="translate(-3.55 -3)"/><path class="cls-18" d="M48.7,52.75l-.08.11-.22.34H48c.1-.15.19-.3.28-.45Z" transform="translate(-3.55 -3)"/><polygon class="cls-18" points="35.5 50.11 35.1 49.85 37.29 46.79 42.69 46.79 42.69 47.24 37.55 47.24 35.5 50.11"/><path class="cls-9" d="M41.33,62.4c-.11.15-.21.3-.31.46H19.7V62.4Z" transform="translate(-3.55 -3)"/><path class="cls-9" d="M42.26,62.4a.61.61,0,0,0-.07.1c-.08.13-.16.24-.25.36H41.7c.1-.16.2-.31.31-.46Z" transform="translate(-3.55 -3)"/><path class="cls-9" d="M43.6,62.72v.14h-.09Z" transform="translate(-3.55 -3)"/><rect class="cls-9" x="12.05" y="48.35" width="7.9" height="0.46"/><path class="cls-12" d="M64.66,55.6H52.18a1.27,1.27,0,0,0,.06.45H64.66Z" transform="translate(-3.55 -3)"/><path class="cls-9" d="M45.88,55.47l-.37.58H41.75v-.58Z" transform="translate(-3.55 -3)"/><path class="cls-9" d="M46.91,55.47l0,.05-.12.18c-.08.12-.15.24-.23.35h-.34l.37-.58Z" transform="translate(-3.55 -3)"/><polygon class="cls-9" points="38.14 56.93 23.18 56.93 23.18 56.47 37.9 56.47 40.7 52.69 41.09 52.96 38.14 56.93"/><rect class="cls-9" x="12.05" y="52.48" width="16.99" height="0.46"/><path class="cls-9" d="M34.72,65.17l4.69,0-.31.45h-.74l-3.84,0-2.9-2.76-.16-.15.33-.31h0l.48.46Z" transform="translate(-3.55 -3)"/><path class="cls-9" d="M40.32,65.2l-.07.1,0,0-.22.32h-.23l.32-.45Z" transform="translate(-3.55 -3)"/><polygon class="cls-12" points="42.67 62.68 53.22 62.73 53.93 62.73 53.94 62.28 53.22 62.28 42.98 62.22 42.67 62.68"/><rect class="cls-12" x="49.75" y="58.31" width="11.37" height="0.46"/><path class="cls-19" d="M70.17,10.56a22,22,0,0,1-.25,2.7A38.24,38.24,0,0,1,69,17.72c-.06.26-.13.51-.18.76l0,.08c-.2.77-.4,1.54-.63,2.3s-.44,1.5-.68,2.24c-.07.23-.14.46-.22.69l-.18.54c-.19.59-.4,1.18-.6,1.77-.94,2.68-2,5.33-3.14,7.95-.41.93-.83,1.85-1.25,2.77s-.78,1.67-1.19,2.51-.75,1.56-1.14,2.34a1.34,1.34,0,0,1-.06.12c-.07.15-.15.3-.22.46l-.3.59-.27.54q-2.71,5.31-5.84,10.48l-.05.07c-.07.12-.15.24-.22.37h0l-.08.13-.25.41-1,1.69c-.05.1-.11.19-.17.29l-.14.22q-1.3,2.09-2.65,4.17l-.06.1-.21.31-.06.11c-.13.19-.25.38-.37.57l-.06.08-.22.34h0c-1.5,2.29-3,4.57-4.64,6.82-.55.78-1.1,1.56-1.66,2.33l-.76,1v0l-.06.08-.16.21,0,0-.35.47-.26.34-.37.5c-.78,1-1.56,2.06-2.37,3.08s-1.63,2-2.46,3.06l-.18.21c-.36.43-.72.87-1.09,1.3a113.6,113.6,0,0,1-8.29,8.81A61.73,61.73,0,0,1,20,95.19c-.87.66-1.78,1.3-2.75,1.92l-.95.56A18.35,18.35,0,0,1,14,98.78a12.28,12.28,0,0,1-2,.63,9.11,9.11,0,0,1-1.54.2h-.22A6.45,6.45,0,0,1,7.82,99l-.06,0a5.84,5.84,0,0,1-1.6-1.26A8.83,8.83,0,0,1,4.6,94.91a18.79,18.79,0,0,1-.67-2.71A44.61,44.61,0,0,1,3.8,81.56Q4.25,76.73,5.16,72c0,3.19,0,6.38.15,9.54.08,1.72.21,3.43.41,5.13a34.76,34.76,0,0,0,.93,5,14.17,14.17,0,0,0,.84,2.29,6.37,6.37,0,0,0,1.23,1.84,2.78,2.78,0,0,0,.71.48,1.44,1.44,0,0,0,.63.12,1.61,1.61,0,0,0,.37,0,1.56,1.56,0,0,0,.31,0,3.53,3.53,0,0,0,1.1-.21,6.69,6.69,0,0,0,.88-.35l.1,0a16.8,16.8,0,0,0,2.23-1.33l.33-.23c.66-.47,1.3-1,1.93-1.52a54,54,0,0,0,4.18-4c1.34-1.38,2.63-2.81,3.88-4.26Q26.84,82.7,28.25,81l.09-.12.1-.11L29,80q1.58-1.94,3.09-3.92a1.47,1.47,0,0,0,.1-.13l.1-.12.11-.15c.43-.55.85-1.11,1.27-1.67l1.57-2.1.71-1,1-1.36c.53-.72,1.05-1.45,1.58-2.18h0c.29-.43.69-1,1.15-1.64l.06-.09.32-.45,1-1.49.59-.85c.1-.16.2-.31.31-.46,1-1.46,2-2.92,2.92-4.4q.65-1,1.26-2l.37-.58.17-.27c.43-.66.84-1.33,1.26-2,.1-.15.19-.3.28-.45l.35-.55,0-.06.11-.17q1.41-2.27,2.76-4.55c.58-1,1.16-1.91,1.73-2.87l.27-.46.86-1.46h0c.65-1.1,1.29-2.2,1.93-3.3.48-.84.95-1.69,1.42-2.53Q58.78,34.9,59.8,33c1.63-3.09,3.23-6.19,4.63-9.33.07-.16.15-.33.21-.48.73-1.67,1.41-3.34,2-5,.19-.55.37-1.11.54-1.67,0,0,0,0,0,0A32.87,32.87,0,0,0,68,13.12a14.86,14.86,0,0,0,.23-4.95,5.68,5.68,0,0,0-.31-1.11,3.49,3.49,0,0,0-.53-1,2.55,2.55,0,0,0-.53-.51,2.11,2.11,0,0,0-.51-.29,2.89,2.89,0,0,0-.77-.23A6.11,6.11,0,0,0,64.37,5a9.37,9.37,0,0,0-2.18.19A21.65,21.65,0,0,0,59.24,6c-1,.35-2,.73-2.93,1.15S54.39,8,53.44,8.48c-1.9.93-3.78,1.9-5.61,2.93s-3.67,2.08-5.48,3.16-3.62,2.17-5.4,3.27L31.84,21a.19.19,0,0,1,.07-.13c3.22-2.56,6.53-5.05,10-7.41A110.4,110.4,0,0,1,52.85,6.82,45.93,45.93,0,0,1,59,4.14a24.54,24.54,0,0,1,3.45-.91A12.58,12.58,0,0,1,64.3,3h.31c.28,0,.55,0,.82.08l.19,0a5.67,5.67,0,0,1,1.91.69,4.64,4.64,0,0,1,1.28,1.1l.08.1a5.31,5.31,0,0,1,.74,1.38A8.34,8.34,0,0,1,70,7.8,13.51,13.51,0,0,1,70.17,10.56Z" transform="translate(-3.55 -3)"/><path class="cls-2" d="M70.85,10.56a22,22,0,0,1-.25,2.7,38.24,38.24,0,0,1-.89,4.46c-.06.26-.13.51-.18.76l0,.08c-.2.77-.41,1.54-.63,2.3s-.44,1.5-.68,2.24c-.07.23-.14.46-.22.69l-.18.54c-.19.59-.4,1.18-.6,1.77q-1.41,4-3.14,7.95-.64,1.46-1.32,2.91c-.36.79-.74,1.58-1.12,2.37s-.75,1.56-1.14,2.34a1.34,1.34,0,0,1-.06.12c-.07.15-.15.3-.22.46l-.3.59-.27.54c-1.82,3.54-3.75,7-5.84,10.48l-.05.07c-.07.12-.15.24-.22.37h0l-.08.13-.25.41-.45.75-.29.45c-.1.17-.19.33-.3.49s-.11.19-.17.29l-.14.22q-1.3,2.09-2.65,4.17l-.06.1-.21.31a.41.41,0,0,1-.07.11l-.36.57-.06.08-.22.34h0c-.54.82-1.09,1.65-1.66,2.48-.09.15-.2.3-.3.46q-1.32,1.95-2.68,3.88c-.55.78-1.1,1.56-1.66,2.33l-.45.62-.24.34-.07.09a.86.86,0,0,1-.07.1l-.16.21-.38.52-.26.34-.37.5c-.78,1-1.56,2.06-2.37,3.08s-1.62,2-2.46,3l-.17.21-1.1,1.31a113.6,113.6,0,0,1-8.29,8.81c-1.51,1.41-3.1,2.8-4.83,4.12-.87.66-1.78,1.3-2.75,1.92l-.95.56a18.35,18.35,0,0,1-2.31,1.11,12.28,12.28,0,0,1-2,.63,8.78,8.78,0,0,1-2.22.2h-.22A6.45,6.45,0,0,1,7.82,99l-.06,0a5.84,5.84,0,0,1-1.6-1.26A8.83,8.83,0,0,1,4.6,94.91a18.79,18.79,0,0,1-.67-2.71A44.61,44.61,0,0,1,3.8,81.56Q4.25,76.73,5.16,72c0-.29.11-.57.17-.86,0-.12.15-.2.3-.19a.21.21,0,0,1,.21.2c0,3.48,0,7,.15,10.39.08,1.72.21,3.43.41,5.13a33.42,33.42,0,0,0,.93,5,14.17,14.17,0,0,0,.84,2.29A6.37,6.37,0,0,0,9.4,95.71a2.78,2.78,0,0,0,.71.48,1.46,1.46,0,0,0,.32.1,1.56,1.56,0,0,0,.31,0,3.53,3.53,0,0,0,1.1-.21,6.69,6.69,0,0,0,.88-.35l.1,0a16.8,16.8,0,0,0,2.23-1.33l.33-.23c.66-.47,1.3-1,1.93-1.52a54,54,0,0,0,4.18-4c1.34-1.38,2.63-2.81,3.88-4.26Q26.84,82.7,28.25,81l.09-.12.1-.11L29,80q1.58-1.94,3.09-3.92a1.47,1.47,0,0,0,.1-.13l.1-.12.11-.15c.43-.55.85-1.11,1.27-1.67l1.57-2.1.71-1,1-1.36c.53-.72,1.05-1.45,1.58-2.18h0c.29-.43.69-1,1.15-1.64l.06-.09.32-.45,1-1.49.59-.85c.1-.16.2-.31.31-.46,1-1.46,2-2.92,2.92-4.4q.65-1,1.26-2l.37-.58.17-.27c.43-.66.84-1.33,1.26-2,.1-.15.19-.3.28-.45l.35-.55,0-.06.11-.17q1.41-2.27,2.76-4.55c.58-1,1.16-1.91,1.73-2.87l.27-.46.86-1.46h0c.65-1.1,1.29-2.2,1.93-3.3.48-.84.95-1.69,1.42-2.53Q58.78,34.9,59.8,33c1.63-3.09,3.23-6.19,4.63-9.33.07-.16.15-.33.21-.48.73-1.67,1.41-3.34,2-5,.19-.55.37-1.11.54-1.67,0,0,0,0,0,0A32.87,32.87,0,0,0,68,13.12a14.86,14.86,0,0,0,.23-4.95,5.68,5.68,0,0,0-.31-1.11,3.49,3.49,0,0,0-.53-1,2.55,2.55,0,0,0-.53-.51,2.11,2.11,0,0,0-.51-.29,2.89,2.89,0,0,0-.77-.23A6.11,6.11,0,0,0,64.37,5a11.61,11.61,0,0,0-1.5.19A21.65,21.65,0,0,0,59.92,6c-1,.35-2,.73-2.93,1.15S55.07,8,54.12,8.48c-1.9.93-3.78,1.9-5.61,2.93S44.84,13.49,43,14.57s-3.62,2.17-5.4,3.27l-5.38,3.33a.32.32,0,0,1-.37,0,.15.15,0,0,1,0-.14.19.19,0,0,1,.07-.13c3.22-2.56,6.53-5.05,10-7.41A110.4,110.4,0,0,1,52.85,6.82,45.93,45.93,0,0,1,59,4.14a24.54,24.54,0,0,1,3.45-.91A12.58,12.58,0,0,1,64.3,3h1c.27,0,.55,0,.82.08l.19,0a5.75,5.75,0,0,1,1.91.69,4.64,4.64,0,0,1,1.28,1.1l.08.1a5.31,5.31,0,0,1,.74,1.38,7.44,7.44,0,0,1,.37,1.4A12.84,12.84,0,0,1,70.85,10.56Z" transform="translate(-3.55 -3)"/><path class="cls-6" d="M36.46,74.32" transform="translate(-3.55 -3)"/><path class="cls-20" d="M41.28,65.65" transform="translate(-3.55 -3)"/><path class="cls-20" d="M42.53,63.71" transform="translate(-3.55 -3)"/><path class="cls-20" d="M53.85,44.55" transform="translate(-3.55 -3)"/><path class="cls-21" d="M20,67.7H37.6c-.09.11-.17.22-.25.34H19.65V41.19h34.9l-.2.34H20Z" transform="translate(-3.55 -3)"/></svg>